<?xml version="1.0" encoding="UTF-8"?>
<!DOCTYPE svg PUBLIC "-//W3C//DTD SVG 1.1//EN" "http://www.w3.org/Graphics/SVG/1.1/DTD/svg11.dtd">
<svg version="1.1" xmlns="http://www.w3.org/2000/svg" xmlns:xlink="http://www.w3.org/1999/xlink" x="0" y="0" width="1000" height="1600" viewBox="0, 0, 1000, 1600">
  <g id="Background">
    <rect x="0" y="0" width="1000" height="1600" fill="#FFFFFF"/>
  </g>
  <g id="Background">
    <path d="M0,0 L1000,0 L1000,1600 L0,1600 z" fill="#CBCBCB"/>
  </g>
  <g id="レイヤー_1">
    <path d="M152.624,171.584 C153.68,179.072 155.024,182.72 158.192,186.656 C163.28,193.088 172.592,196.544 184.976,196.544 C204.176,196.544 215.12,187.616 215.12,171.968 C215.12,167.36 214.16,163.52 212.24,160.352 C210.032,156.704 206.48,153.728 202.544,152 C198.704,150.272 194.096,149.024 183.632,146.816 C178.64,145.664 176.72,144.992 174.608,143.648 C172.496,142.112 171.344,140 171.344,137.408 C171.344,131.936 176.336,128.288 183.824,128.288 C188.432,128.288 192.272,129.728 194.48,132.32 C195.824,134.048 196.496,135.488 196.976,138.464 L213.872,136.64 C212.624,130.976 211.376,128.192 208.976,124.928 C203.984,118.4 195.344,114.944 183.92,114.944 C166.16,114.944 154.928,123.872 154.928,137.984 C154.928,145.088 157.808,150.944 163.184,154.976 C166.832,157.568 170,158.816 178.16,160.736 C188.624,163.136 191.6,164.096 194.576,166.016 C197.072,167.552 198.32,169.952 198.32,172.928 C198.32,179.072 193.04,182.912 184.688,182.912 C179.024,182.912 174.512,181.088 171.92,177.728 C170.288,175.712 169.712,173.888 169.328,169.952 z" fill="#0000FF"/>
    <path d="M241.808,126.944 C240.656,123.2 239.984,120.512 239.408,116.768 L220.304,116.768 C221.648,119.552 222.992,122.72 225.008,128.384 L245.456,184.832 C247.088,189.344 248.048,192.416 248.528,194.816 L269.072,194.816 C269.456,192.512 270.416,189.44 272.144,184.832 L292.592,128.384 C294.896,121.856 295.952,119.264 297.2,116.768 L278.096,116.768 C277.52,120.896 277.328,121.856 275.696,126.944 L260.816,174.176 C260.048,176.576 259.376,178.784 258.8,180.8 C258.512,179.552 257.744,176.96 256.88,174.176 z" fill="#0000FF"/>
    <path d="M355.28,165.248 L355.28,178.688 C350.48,181.472 345.968,182.624 340.208,182.624 C333.488,182.624 328.304,180.608 324.848,176.672 C320.72,171.968 318.512,164.576 318.512,155.36 C318.512,145.952 320.816,138.848 325.232,134.24 C328.592,130.784 333.488,128.864 338.768,128.864 C343.28,128.864 346.448,129.632 349.136,131.456 C351.92,133.28 353.36,135.392 354.896,139.808 L371.12,135.776 C369.104,130.208 367.376,127.328 364.112,123.968 C358.352,118.208 350,115.04 340.304,115.04 C332.432,115.04 325.808,116.48 320.432,119.552 C308.72,125.984 302,138.944 302,155.264 C302,167.072 305.36,177.92 311.216,184.928 C317.648,192.416 327.632,196.448 340.016,196.448 C345.104,196.448 350.768,195.68 355.376,194.432 C360.848,192.992 364.592,191.36 370.928,187.52 C370.352,183.296 370.256,180.512 370.256,174.272 L370.256,163.808 C370.256,157.952 370.448,154.976 370.928,151.328 C366.992,151.712 363.632,151.808 359.024,151.808 L352.688,151.808 C346.352,151.808 344.24,151.712 340.688,151.232 L340.688,165.728 C343.568,165.344 345.488,165.248 350.384,165.248 z" fill="#0000FF"/>
    <path d="M432.848,132.224 C436.688,132.704 438.992,133.472 441.776,135.296 C448.304,139.616 452.048,146.816 452.048,155.36 C452.048,165.536 447.056,174.464 438.8,178.976 C434.288,181.376 428.336,182.912 419.792,183.584 C423.536,188.576 424.88,191.168 426.896,197.216 C433.712,196.064 437.552,195.104 442.16,193.28 C457.52,187.232 466.256,173.696 466.256,156.224 C466.256,133.76 450.896,119.36 426.8,119.36 C413.072,119.36 401.264,124.16 393.008,133.184 C386,140.768 382.256,150.752 382.256,161.696 C382.256,178.208 390.704,189.824 402.608,189.824 C410.864,189.824 417.2,184.16 422.576,171.968 C427.568,160.832 430.928,148.064 432.848,132.224 z M418.832,132.416 C417.68,142.688 414.704,154.784 411.152,163.328 C408.08,171.104 405.104,174.848 402.32,174.848 C398.576,174.848 395.504,168.992 395.504,161.792 C395.504,152.192 400.016,142.88 407.312,137.216 C411.056,134.336 414.224,132.992 418.832,132.416 z" fill="#0000FF"/>
    <path d="M508.688,133.088 L508.688,125.984 C508.688,120.032 508.688,119.168 509.168,115.424 L494.192,115.424 C494.576,118.304 494.672,121.376 494.672,126.272 L494.672,133.088 L490.16,133.088 C483.248,133.088 481.424,132.992 477.008,132.416 L477.008,146.432 C481.328,146.048 483.152,145.952 489.872,145.952 L494.672,145.952 L494.672,156.32 C494.672,161.696 494.48,165.152 494.192,167.552 L509.072,167.552 C508.688,164.576 508.688,163.52 508.688,156.512 L508.688,145.952 L531.44,145.952 C531.344,151.424 531.248,153.536 531.152,155.456 C530.384,166.592 527.696,172.736 520.976,178.208 C516.56,181.856 511.664,184.16 502.448,186.848 C507.152,191.744 508.688,193.952 511.28,199.232 C516.368,197.408 518.576,196.448 521.456,194.912 C528.56,191.264 533.936,186.56 537.776,180.8 C541.712,174.944 543.632,169.28 544.496,160.544 C544.88,156.896 544.976,155.264 545.168,145.952 L550.544,145.952 C556.112,145.952 560.048,146.144 563.408,146.432 L563.408,132.416 C559.76,132.896 556.496,133.088 550.352,133.088 L545.264,133.088 C545.36,126.656 545.36,126.656 545.36,124.832 C545.36,119.552 545.36,119.552 545.744,115.52 L531.248,115.52 C531.536,117.92 531.632,120.32 531.632,126.08 L531.632,129.152 C531.632,130.016 531.632,131.36 531.632,133.088 z" fill="#0000FF"/>
    <path d="M578.384,131.552 C587.6,136.64 595.664,142.976 603.632,151.424 L613.328,138.848 C605.648,131.744 600.176,127.712 587.792,120.224 z M582.992,195.488 C585.008,194.816 585.584,194.624 587.792,194.144 C589.616,193.76 589.616,193.76 592.016,193.28 C601.232,191.264 612.272,187.328 619.952,183.296 C636.656,174.464 647.984,161.792 657.488,141.248 C651.536,137.024 649.808,135.392 645.296,130.112 C642.512,137.6 639.92,142.784 635.6,149.216 C628.112,160.448 619.568,167.648 607.376,172.736 C598.544,176.576 587.6,179.168 578.768,179.744 z" fill="#0000FF"/>
    <path d="M688.784,122.24 C680.816,122.24 677.84,122.144 673.712,121.568 L673.712,136.256 C677.648,135.776 680.72,135.68 688.592,135.68 L730.64,135.68 C726.224,153.152 716.816,166.304 702.032,175.712 C695.024,180.128 689.744,182.624 681.392,185.216 C686.864,190.688 688.4,192.8 691.568,198.944 C708.08,191.552 718.928,184.064 727.76,173.696 C736.592,163.424 742.736,150.944 746.768,134.816 L747.152,133.472 C747.248,133.472 747.44,133.472 747.536,133.472 C753.392,133.472 758.096,128.672 758.096,122.816 C758.096,116.96 753.392,112.16 747.44,112.16 C741.872,112.16 737.264,116.48 736.88,122.048 C735.056,122.24 733.904,122.24 732.752,122.24 z M747.44,118.112 C750.032,118.112 752.144,120.224 752.144,122.816 C752.144,125.408 750.032,127.52 747.44,127.52 C744.848,127.52 742.736,125.408 742.736,122.816 C742.736,120.224 744.848,118.112 747.44,118.112 z" fill="#0000FF"/>
    <path d="M776.048,116.768 C776.336,119.264 776.432,121.088 776.432,126.464 C776.432,131.648 776.24,138.176 776.048,142.88 C775.472,153.056 774.608,158.624 772.592,164.96 C769.712,174.272 765.584,180.416 758.192,186.944 C763.376,190.592 765.2,192.32 769.808,198.176 C776.048,191.84 779.6,186.848 782.96,179.84 C788.048,169.376 789.872,159.392 790.544,139.424 C791.216,120.512 791.216,120.512 791.6,117.632 z M802.352,116.096 C802.64,118.496 802.736,120.704 802.736,124.928 C802.736,125.792 802.736,126.656 802.736,127.616 L802.352,181.568 C802.256,186.176 802.064,188.096 801.392,190.784 L808.496,198.368 C809.744,197.6 810.512,197.312 812.912,196.448 C822.704,192.8 827.6,190.016 833.168,185.216 C839.984,179.264 845.072,171.872 849.104,161.888 C843.824,157.664 842.288,156.128 838.352,151.136 C836.336,157.952 833.744,163.136 829.808,168.128 C826.16,172.736 822.608,175.616 816.656,178.88 L817.136,127.808 C817.232,121.28 817.328,120.128 817.904,116.192 z" fill="#0000FF"/>
    <path d="M349.112,930.674 L500,669.326 L650.888,930.674 z" fill="#00FF00"/>
    <path d="M688.8,1204.8 L956,1204.8 L956,1472 L688.8,1472 L688.8,1204.8 z" fill="#0000FF"/>
    <path d="M182.4,559.2 C106.406,559.2 44.8,497.594 44.8,421.6 C44.8,345.606 106.406,284 182.4,284 C258.394,284 320,345.606 320,421.6 C320,497.594 258.394,559.2 182.4,559.2 z" fill="#FF0000"/>
  </g>
</svg>
